<svg id="图层_1" data-name="图层 1" xmlns="http://www.w3.org/2000/svg" viewBox="0 0 115.31 133.34"><defs><style>.cls-1{fill:#5b63ac;}.cls-2{fill:#925684;}.cls-3{fill:#6993cd;}</style></defs><path class="cls-1" d="M361.44,606.22,350.2,576.13l-1.72,1.46c-.9.77-1.82,1.53-2.77,2.3l-.88.71,9.52,25.49-48.87,18.26-6.57-17.57-1.47.54c-1.08.39-2.15.76-3.2,1.12l-1.55.52,7.52,20.14a7,7,0,0,0,6.49,4.5,7,7,0,0,0,2.43-.44l48.25-18a6.93,6.93,0,0,0,4.06-8.91Z" transform="translate(-256 -500.26)"/><path class="cls-1" d="M317.18,508.17,329,539.88l1.88-.52c1.12-.32,2.21-.59,3.24-.83l2.38-.53-12.28-32.88a7.49,7.49,0,0,0-9.62-4.39l-48.25,18a7.48,7.48,0,0,0-4.38,9.62l16.56,44.34,2.35-2.7c.77-.88,1.62-1.8,2.52-2.71l1-1-15.06-40.29ZM282.9,516l17.46-6.52a.63.63,0,1,1,.45,1.18l-17.47,6.53a.63.63,0,0,1-.81-.37A.64.64,0,0,1,282.9,516Z" transform="translate(-256 -500.26)"/><path class="cls-1" d="M338.47,543.18l-1.69.23c-1.12.16-2.33.38-3.6.66l-2.39.53,10.44,27.94,7.22-2.66Z" transform="translate(-256 -500.26)"/><path class="cls-1" d="M291.5,590.39c-1.14.21-2.26.38-3.31.49l-2.73.29,3.36,9,7.91-.8-3.48-9.29Z" transform="translate(-256 -500.26)"/><path class="cls-1" d="M286.32,571.52,284,574.77a24.67,24.67,0,0,0-2.46,4.15l-.36.8,3,8.12,1.14.25a16.65,16.65,0,0,0,3.57.34h.71l3-.08Z" transform="translate(-256 -500.26)"/><path class="cls-2" d="M370.12,533.38c-2.86-4.91-10.59-6.41-21.05-4.94v.42c7-.17,12.14,1.52,14.34,5.28,6,10.25-12.05,31.93-40.29,48.44s-56,21.57-62,11.32c-2.63-4.48-.65-11.16,4.77-18.62-8.39,9.72-12,18.55-8.73,24.1,6.39,10.94,36.85,5,68-13.2S376.52,544.32,370.12,533.38Z" transform="translate(-256 -500.26)"/><path class="cls-2" d="M280.29,586c-4-6.75,8.35-21.28,27.46-32.45s37.81-14.75,41.75-8c1.72,2.94.35,7.38-3.34,12.36,5.7-6.51,8.18-12.38,6-16-4.2-7.2-24.73-3-45.83,9.3s-34.81,28.17-30.6,35.37c2.13,3.65,8.46,4.38,16.93,2.6C286.54,589.93,282,589,280.29,586Z" transform="translate(-256 -500.26)"/><circle class="cls-3" cx="94.72" cy="28.5" r="3.28"/><circle class="cls-3" cx="70.21" cy="82.83" r="3.82"/><circle class="cls-3" cx="94.68" cy="49.75" r="2.84"/><circle class="cls-3" cx="32.27" cy="66" r="3.57"/></svg>