<svg id="图层_1" data-name="图层 1" xmlns="http://www.w3.org/2000/svg" viewBox="0 0 621.85 133.34"><defs><style>.cls-1{fill:#5b63ac;}.cls-2{fill:#925684;}.cls-3{fill:#6993cd;}.cls-4{fill:#fff;}</style></defs><path class="cls-1" d="M1532.31,606.22l-11.25-30.09-1.71,1.46c-.9.77-1.82,1.53-2.77,2.3l-.88.71,9.52,25.49-48.88,18.26-6.56-17.57-1.47.54c-1.08.39-2.15.76-3.2,1.12l-1.56.52,7.53,20.14a6.94,6.94,0,0,0,6.48,4.5,7,7,0,0,0,2.43-.44l48.25-18a6.93,6.93,0,0,0,4.07-8.91Z" transform="translate(-1426.87 -500.26)"/><path class="cls-1" d="M1488.05,508.17l11.85,31.71,1.88-.52c1.11-.32,2.2-.59,3.24-.83l2.38-.53-12.29-32.88a7.49,7.49,0,0,0-9.61-4.39l-48.25,18a7.47,7.47,0,0,0-4.39,9.62l16.57,44.34,2.35-2.7c.77-.88,1.62-1.8,2.52-2.71l1-1-15-40.29ZM1453.77,516l17.46-6.52a.63.63,0,0,1,.81.37.62.62,0,0,1-.37.81l-17.46,6.53a.63.63,0,1,1-.44-1.19Z" transform="translate(-1426.87 -500.26)"/><path class="cls-1" d="M1509.34,543.18l-1.69.23c-1.12.16-2.33.38-3.6.66l-2.39.53,10.44,27.94,7.21-2.66Z" transform="translate(-1426.87 -500.26)"/><path class="cls-1" d="M1462.37,590.39c-1.15.21-2.26.38-3.32.49l-2.73.29,3.36,9,7.91-.8-3.47-9.29Z" transform="translate(-1426.87 -500.26)"/><path class="cls-1" d="M1457.19,571.52l-2.33,3.25a24.57,24.57,0,0,0-2.45,4.15l-.36.8,3,8.12,1.13.25a16.74,16.74,0,0,0,3.58.34h.71l3-.08Z" transform="translate(-1426.87 -500.26)"/><path class="cls-2" d="M1541,533.38c-2.87-4.91-10.6-6.41-21-4.94v.42c7-.17,12.14,1.52,14.34,5.28,6,10.25-12,31.93-40.29,48.44s-56,21.57-62,11.32c-2.62-4.48-.64-11.16,4.78-18.62-8.4,9.72-12,18.55-8.74,24.1,6.4,10.94,36.86,5,68-13.2S1547.38,544.32,1541,533.38Z" transform="translate(-1426.87 -500.26)"/><path class="cls-2" d="M1451.15,586c-3.94-6.75,8.36-21.28,27.47-32.45s37.8-14.75,41.75-8c1.72,2.94.34,7.38-3.35,12.36,5.71-6.51,8.18-12.38,6-16-4.21-7.2-24.73-3-45.84,9.3s-34.81,28.17-30.6,35.37c2.14,3.65,8.47,4.38,16.94,2.6C1457.41,589.93,1452.87,589,1451.15,586Z" transform="translate(-1426.87 -500.26)"/><circle class="cls-3" cx="94.72" cy="28.5" r="3.28"/><circle class="cls-3" cx="70.21" cy="82.83" r="3.82"/><circle class="cls-3" cx="94.68" cy="49.75" r="2.84"/><circle class="cls-3" cx="32.27" cy="66" r="3.57"/><path class="cls-4" d="M1589.58,544.64a18.53,18.53,0,0,0-5.63-3.93,15.9,15.9,0,0,0-6.67-1.45h-20.72v6.39h2.11v49.28h6.39V575.26h12.27a15.81,15.81,0,0,0,6.65-1.45,18.06,18.06,0,0,0,5.61-4,19.83,19.83,0,0,0,3.88-5.74,16.9,16.9,0,0,0,0-13.72A19.18,19.18,0,0,0,1589.58,544.64Zm-2.06,17.26a12.38,12.38,0,0,1-2.62,3.67,13,13,0,0,1-3.59,2.42,9.69,9.69,0,0,1-4,.88h-12.26V545.65h12.26a9.55,9.55,0,0,1,4,.89,12.51,12.51,0,0,1,3.59,2.45,13.05,13.05,0,0,1,2.62,3.67,10.51,10.51,0,0,1,1,4.6A10.78,10.78,0,0,1,1587.52,561.9Z" transform="translate(-1426.87 -500.26)"/><path class="cls-4" d="M1640.4,547.59a22,22,0,0,0-7.23-6.27,18.41,18.41,0,0,0-17.27,0,21.87,21.87,0,0,0-7.22,6.27,28.38,28.38,0,0,0-4.64,8.82,33.61,33.61,0,0,0-1.6,10.36,33.26,33.26,0,0,0,1.6,10.32,28.51,28.51,0,0,0,4.64,8.78,21.87,21.87,0,0,0,7.22,6.27,18.49,18.49,0,0,0,17.27,0,22,22,0,0,0,7.23-6.27,28.7,28.7,0,0,0,4.63-8.78,33.26,33.26,0,0,0,1.6-10.32,33.61,33.61,0,0,0-1.6-10.36A28.57,28.57,0,0,0,1640.4,547.59ZM1639,575a23.75,23.75,0,0,1-3.35,6.72,16.15,16.15,0,0,1-5,4.53,12,12,0,0,1-12.19,0,16.63,16.63,0,0,1-5-4.53,23.05,23.05,0,0,1-3.39-6.72,26.19,26.19,0,0,1-1.25-8.21,26.59,26.59,0,0,1,1.25-8.26,22.86,22.86,0,0,1,3.39-6.75,16.37,16.37,0,0,1,5-4.53,12,12,0,0,1,12.19,0,15.9,15.9,0,0,1,5,4.53,23.54,23.54,0,0,1,3.35,6.75,26.6,26.6,0,0,1,1.26,8.26A26.19,26.19,0,0,1,1639,575Z" transform="translate(-1426.87 -500.26)"/><polygon class="cls-4" points="298.41 70.31 325.28 70.31 325.28 63.92 298.41 63.92 298.41 45.63 329.57 45.63 329.57 39.24 290 39.24 290 45.63 292.02 45.63 292.02 95 330.13 95 330.13 88.6 298.41 88.6 298.41 70.31"/><path class="cls-4" d="M1798.59,565a15.37,15.37,0,0,0,3.16-4.7,14.34,14.34,0,0,0-.2-11.61,15.83,15.83,0,0,0-3.65-4.93,17.31,17.31,0,0,0-5.39-3.32,17.79,17.79,0,0,0-6.57-1.21h-21.41v6.31h2.1v49.36H1773V545.6l12.87,0a11.8,11.8,0,0,1,4.13.72,10.8,10.8,0,0,1,3.36,2,9.76,9.76,0,0,1,2.26,2.9,7.59,7.59,0,0,1,.85,3.52,7.81,7.81,0,0,1-.84,3.59,9.84,9.84,0,0,1-2.26,2.91,10.33,10.33,0,0,1-3.33,2,11.49,11.49,0,0,1-4.12.73h-7v4.28l16,26.66h7.44L1788,570.17a16.27,16.27,0,0,0,5.84-1.7A18.49,18.49,0,0,0,1798.59,565Z" transform="translate(-1426.87 -500.26)"/><path class="cls-4" d="M1842.37,544.64a18.49,18.49,0,0,0-5.62-3.93,16,16,0,0,0-6.68-1.45h-20.71v6.39h2.1v49.28h6.39V575.26h12.27a15.89,15.89,0,0,0,6.66-1.45,18.29,18.29,0,0,0,5.61-4,20,20,0,0,0,3.87-5.74,17,17,0,0,0,0-13.72A19.21,19.21,0,0,0,1842.37,544.64Zm-2.06,17.26a12.2,12.2,0,0,1-2.62,3.67,12.89,12.89,0,0,1-3.59,2.42,9.62,9.62,0,0,1-4,.88h-12.26V545.65h12.26a9.48,9.48,0,0,1,4,.89,12.38,12.38,0,0,1,3.59,2.45,12.86,12.86,0,0,1,2.62,3.67,10.37,10.37,0,0,1,1,4.6A10.64,10.64,0,0,1,1840.31,561.9Z" transform="translate(-1426.87 -500.26)"/><polygon class="cls-4" points="463.65 62.79 437.84 62.79 437.84 39.48 429.1 39.48 429.1 45.88 431.44 45.88 431.44 94.75 437.84 94.75 437.84 69.18 463.65 69.18 463.65 94.75 470.04 94.75 470.04 39.48 463.65 39.48 463.65 62.79"/><path class="cls-4" d="M1943,547.59a22,22,0,0,0-7.23-6.27,18.17,18.17,0,0,0-8.59-2.15,18.38,18.38,0,0,0-8.68,2.15,22,22,0,0,0-7.22,6.27,28.38,28.38,0,0,0-4.64,8.82,33.6,33.6,0,0,0-1.59,10.36,33.26,33.26,0,0,0,1.59,10.32,28.51,28.51,0,0,0,4.64,8.78,22,22,0,0,0,7.22,6.27,18.37,18.37,0,0,0,8.68,2.14,18.16,18.16,0,0,0,8.59-2.14,22,22,0,0,0,7.23-6.27,28.7,28.7,0,0,0,4.63-8.78,33,33,0,0,0,1.6-10.32,33.31,33.31,0,0,0-1.6-10.36A28.57,28.57,0,0,0,1943,547.59ZM1941.62,575a24,24,0,0,1-3.34,6.72,16.3,16.3,0,0,1-5,4.53,12,12,0,0,1-12.19,0,16.63,16.63,0,0,1-5-4.53,23.05,23.05,0,0,1-3.39-6.72,26.19,26.19,0,0,1-1.25-8.21,26.59,26.59,0,0,1,1.25-8.26,22.86,22.86,0,0,1,3.39-6.75,16.37,16.37,0,0,1,5-4.53,12,12,0,0,1,12.19,0,16,16,0,0,1,5,4.53,23.78,23.78,0,0,1,3.34,6.75,26.6,26.6,0,0,1,1.26,8.26A26.19,26.19,0,0,1,1941.62,575Z" transform="translate(-1426.87 -500.26)"/><polygon class="cls-4" points="565.29 80.19 543.19 39 531.62 39 531.62 45.39 533.4 45.39 533.4 94.67 539.8 94.67 539.8 46.15 565.77 94.59 571.68 94.59 571.68 38.35 565.29 38.35 565.29 80.19"/><polygon class="cls-4" points="590.13 88.6 590.13 70.31 617 70.31 617 63.92 590.13 63.92 590.13 45.63 621.28 45.63 621.28 39.24 581.71 39.24 581.71 45.63 583.74 45.63 583.74 95 621.85 95 621.85 88.6 590.13 88.6"/><polygon class="cls-4" points="264.02 82.33 257.15 48.83 254.43 48.83 253.91 48.83 253.4 48.83 250.68 48.83 243.81 82.33 233.85 38.88 226.3 38.88 226.3 45.27 228.72 45.27 239.49 94.47 247.64 94.47 253.91 63.51 260.19 94.47 268.34 94.47 279.11 45.27 281.54 45.27 281.54 38.88 273.98 38.88 264.02 82.33"/></svg>