<svg id="图层_1" data-name="图层 1" xmlns="http://www.w3.org/2000/svg" viewBox="0 0 621.85 133.34"><defs><style>.cls-1{fill:#5b63ac;}.cls-2{fill:#925684;}.cls-3{fill:#6993cd;}.cls-4{fill:#111;}</style></defs><path class="cls-1" d="M361.44,606.22,350.2,576.13l-1.72,1.46c-.9.77-1.82,1.53-2.77,2.3l-.88.71,9.52,25.49-48.87,18.26-6.57-17.57-1.47.54c-1.08.39-2.15.76-3.2,1.12l-1.55.52,7.52,20.14a7,7,0,0,0,6.49,4.5,7,7,0,0,0,2.43-.44l48.25-18a6.93,6.93,0,0,0,4.06-8.91Z" transform="translate(-256 -500.26)"/><path class="cls-1" d="M317.18,508.17,329,539.88l1.88-.52c1.12-.32,2.21-.59,3.24-.83l2.38-.53-12.28-32.88a7.49,7.49,0,0,0-9.62-4.39l-48.25,18a7.48,7.48,0,0,0-4.38,9.62l16.56,44.34,2.35-2.7c.77-.88,1.62-1.8,2.52-2.71l1-1-15.06-40.29ZM282.9,516l17.46-6.52a.63.63,0,1,1,.45,1.18l-17.47,6.53a.63.63,0,0,1-.81-.37A.64.64,0,0,1,282.9,516Z" transform="translate(-256 -500.26)"/><path class="cls-1" d="M338.47,543.18l-1.69.23c-1.12.16-2.33.38-3.6.66l-2.39.53,10.44,27.94,7.22-2.66Z" transform="translate(-256 -500.26)"/><path class="cls-1" d="M291.5,590.39c-1.14.21-2.26.38-3.31.49l-2.73.29,3.36,9,7.91-.8-3.48-9.29Z" transform="translate(-256 -500.26)"/><path class="cls-1" d="M286.32,571.52,284,574.77a24.67,24.67,0,0,0-2.46,4.15l-.36.8,3,8.12,1.14.25a16.65,16.65,0,0,0,3.57.34h.71l3-.08Z" transform="translate(-256 -500.26)"/><path class="cls-2" d="M370.12,533.38c-2.86-4.91-10.59-6.41-21.05-4.94v.42c7-.17,12.14,1.52,14.34,5.28,6,10.25-12.05,31.93-40.29,48.44s-56,21.57-62,11.32c-2.63-4.48-.65-11.16,4.77-18.62-8.39,9.72-12,18.55-8.73,24.1,6.39,10.94,36.85,5,68-13.2S376.52,544.32,370.12,533.38Z" transform="translate(-256 -500.26)"/><path class="cls-2" d="M280.29,586c-4-6.75,8.35-21.28,27.46-32.45s37.81-14.75,41.75-8c1.72,2.94.35,7.38-3.34,12.36,5.7-6.51,8.18-12.38,6-16-4.2-7.2-24.73-3-45.83,9.3s-34.81,28.17-30.6,35.37c2.13,3.65,8.46,4.38,16.93,2.6C286.54,589.93,282,589,280.29,586Z" transform="translate(-256 -500.26)"/><circle class="cls-3" cx="94.72" cy="28.5" r="3.28"/><circle class="cls-3" cx="70.21" cy="82.83" r="3.82"/><circle class="cls-3" cx="94.68" cy="49.75" r="2.84"/><circle class="cls-3" cx="32.27" cy="66" r="3.57"/><path class="cls-4" d="M418.71,544.64a18.61,18.61,0,0,0-5.62-3.93,16,16,0,0,0-6.68-1.45H385.7v6.39h2.1v49.28h6.39V575.26h12.27a15.89,15.89,0,0,0,6.66-1.45,18.29,18.29,0,0,0,5.61-4,20,20,0,0,0,3.87-5.74,17,17,0,0,0,0-13.72A19.21,19.21,0,0,0,418.71,544.64Zm-2.06,17.26a12.2,12.2,0,0,1-2.62,3.67,12.89,12.89,0,0,1-3.59,2.42,9.69,9.69,0,0,1-4,.88H394.19V545.65h12.26a9.55,9.55,0,0,1,4,.89A12.38,12.38,0,0,1,414,549a12.86,12.86,0,0,1,2.62,3.67,10.51,10.51,0,0,1,1,4.6A10.78,10.78,0,0,1,416.65,561.9Z" transform="translate(-256 -500.26)"/><path class="cls-4" d="M469.53,547.59a22.06,22.06,0,0,0-7.22-6.27,18.44,18.44,0,0,0-17.28,0,22.06,22.06,0,0,0-7.22,6.27,28.36,28.36,0,0,0-4.63,8.82,33.31,33.31,0,0,0-1.6,10.36,33,33,0,0,0,1.6,10.32,28.49,28.49,0,0,0,4.63,8.78,22.06,22.06,0,0,0,7.22,6.27,18.51,18.51,0,0,0,17.28,0,22.06,22.06,0,0,0,7.22-6.27,28.49,28.49,0,0,0,4.63-8.78,33,33,0,0,0,1.6-10.32,33.31,33.31,0,0,0-1.6-10.36A28.36,28.36,0,0,0,469.53,547.59ZM468.12,575a24,24,0,0,1-3.35,6.72,16.3,16.3,0,0,1-5,4.53,12,12,0,0,1-12.18,0,16.78,16.78,0,0,1-5-4.53,23.55,23.55,0,0,1-3.39-6.72,26.48,26.48,0,0,1-1.25-8.21,26.89,26.89,0,0,1,1.25-8.26,23.35,23.35,0,0,1,3.39-6.75,16.52,16.52,0,0,1,5-4.53,12,12,0,0,1,12.18,0,16,16,0,0,1,5,4.53,23.8,23.8,0,0,1,3.35,6.75,26.89,26.89,0,0,1,1.25,8.26A26.48,26.48,0,0,1,468.12,575Z" transform="translate(-256 -500.26)"/><polygon class="cls-4" points="298.41 70.31 325.28 70.31 325.28 63.92 298.41 63.92 298.41 45.63 329.57 45.63 329.57 39.24 290 39.24 290 45.63 292.02 45.63 292.02 95 330.13 95 330.13 88.6 298.41 88.6 298.41 70.31"/><path class="cls-4" d="M627.72,565a15.19,15.19,0,0,0,3.16-4.7,14.23,14.23,0,0,0-.2-11.61,15.67,15.67,0,0,0-3.65-4.93,17.31,17.31,0,0,0-5.39-3.32,17.79,17.79,0,0,0-6.57-1.21H593.66v6.31h2.11v49.36h6.39V545.6l12.86,0a11.76,11.76,0,0,1,4.13.72,10.57,10.57,0,0,1,3.36,2,10,10,0,0,1,2.27,2.9,7.71,7.71,0,0,1,.85,3.52,7.82,7.82,0,0,1-.85,3.59,9.65,9.65,0,0,1-2.25,2.91,10.38,10.38,0,0,1-3.34,2,11.49,11.49,0,0,1-4.12.73h-7v4.28l16,26.66h7.44l-14.39-24.76a16.33,16.33,0,0,0,5.84-1.7A18.44,18.44,0,0,0,627.72,565Z" transform="translate(-256 -500.26)"/><path class="cls-4" d="M671.51,544.64a18.66,18.66,0,0,0-5.63-3.93,15.9,15.9,0,0,0-6.67-1.45H638.49v6.39h2.11v49.28H647V575.26h12.27a15.81,15.81,0,0,0,6.65-1.45,18.06,18.06,0,0,0,5.61-4,20,20,0,0,0,3.88-5.74,16.9,16.9,0,0,0,0-13.72A19.18,19.18,0,0,0,671.51,544.64Zm-2.06,17.26a12.56,12.56,0,0,1-2.62,3.67,13,13,0,0,1-3.59,2.42,9.69,9.69,0,0,1-4,.88H647V545.65h12.26a9.55,9.55,0,0,1,4,.89,12.51,12.51,0,0,1,3.59,2.45,13.26,13.26,0,0,1,2.62,3.67,10.51,10.51,0,0,1,1,4.6A10.78,10.78,0,0,1,669.45,561.9Z" transform="translate(-256 -500.26)"/><polygon class="cls-4" points="463.65 62.79 437.84 62.79 437.84 39.48 429.1 39.48 429.1 45.88 431.44 45.88 431.44 94.75 437.84 94.75 437.84 69.18 463.65 69.18 463.65 94.75 470.04 94.75 470.04 39.48 463.65 39.48 463.65 62.79"/><path class="cls-4" d="M772.17,547.59a22.06,22.06,0,0,0-7.22-6.27,18.44,18.44,0,0,0-17.28,0,22.06,22.06,0,0,0-7.22,6.27,28.36,28.36,0,0,0-4.63,8.82,33.31,33.31,0,0,0-1.6,10.36,33,33,0,0,0,1.6,10.32,28.49,28.49,0,0,0,4.63,8.78,22.06,22.06,0,0,0,7.22,6.27,18.51,18.51,0,0,0,17.28,0,22.06,22.06,0,0,0,7.22-6.27,28.49,28.49,0,0,0,4.63-8.78,33,33,0,0,0,1.6-10.32,33.31,33.31,0,0,0-1.6-10.36A28.36,28.36,0,0,0,772.17,547.59ZM770.76,575a24,24,0,0,1-3.35,6.72,16.3,16.3,0,0,1-5,4.53,12,12,0,0,1-12.18,0,16.78,16.78,0,0,1-5-4.53,23.55,23.55,0,0,1-3.39-6.72,26.48,26.48,0,0,1-1.25-8.21,26.89,26.89,0,0,1,1.25-8.26,23.35,23.35,0,0,1,3.39-6.75,16.52,16.52,0,0,1,5-4.53,12,12,0,0,1,12.18,0,16,16,0,0,1,5,4.53,23.8,23.8,0,0,1,3.35,6.75,26.89,26.89,0,0,1,1.25,8.26A26.48,26.48,0,0,1,770.76,575Z" transform="translate(-256 -500.26)"/><polygon class="cls-4" points="565.29 80.19 543.19 39 531.62 39 531.62 45.39 533.4 45.39 533.4 94.67 539.8 94.67 539.8 46.15 565.77 94.59 571.68 94.59 571.68 38.35 565.29 38.35 565.29 80.19"/><polygon class="cls-4" points="590.13 88.6 590.13 70.31 617 70.31 617 63.92 590.13 63.92 590.13 45.63 621.28 45.63 621.28 39.24 581.71 39.24 581.71 45.63 583.74 45.63 583.74 95 621.85 95 621.85 88.6 590.13 88.6"/><polygon class="cls-4" points="264.02 82.33 257.15 48.83 254.43 48.83 253.91 48.83 253.4 48.83 250.68 48.83 243.81 82.33 233.85 38.88 226.3 38.88 226.3 45.27 228.72 45.27 239.49 94.47 247.64 94.47 253.91 63.51 260.19 94.47 268.34 94.47 279.11 45.27 281.54 45.27 281.54 38.88 273.98 38.88 264.02 82.33"/></svg>